<svg viewBox="0 0 330 200" xmlns="http://www.w3.org/2000/svg"><g><g><g><g><g><line x1="49.98400115966797" y1="178.60799980163574" x2="44.98400115966797" y2="178.60799980163574" style="visibility: inherit;" fill="rgb(0, 0, 0)" stroke="rgb(204, 204, 204)" stroke-width="1px"></line><line x1="49.98400115966797" y1="160.74719982147218" x2="44.98400115966797" y2="160.74719982147218" style="visibility: inherit;" fill="rgb(0, 0, 0)" stroke="rgb(204, 204, 204)" stroke-width="1px"></line><line x1="49.98400115966797" y1="142.8863998413086" x2="44.98400115966797" y2="142.8863998413086" style="visibility: inherit;" fill="rgb(0, 0, 0)" stroke="rgb(204, 204, 204)" stroke-width="1px"></line><line x1="49.98400115966797" y1="125.02559986114501" x2="44.98400115966797" y2="125.02559986114501" style="visibility: inherit;" fill="rgb(0, 0, 0)" stroke="rgb(204, 204, 204)" stroke-width="1px"></line><line x1="49.98400115966797" y1="107.16479988098145" x2="44.98400115966797" y2="107.16479988098145" style="visibility: inherit;" fill="rgb(0, 0, 0)" stroke="rgb(204, 204, 204)" stroke-width="1px"></line><line x1="49.98400115966797" y1="89.30399990081787" x2="44.98400115966797" y2="89.30399990081787" style="visibility: inherit;" fill="rgb(0, 0, 0)" stroke="rgb(204, 204, 204)" stroke-width="1px"></line><line x1="49.98400115966797" y1="71.4431999206543" x2="44.98400115966797" y2="71.4431999206543" style="visibility: inherit;" fill="rgb(0, 0, 0)" stroke="rgb(204, 204, 204)" stroke-width="1px"></line><line x1="49.98400115966797" y1="53.58239994049073" x2="44.98400115966797" y2="53.58239994049073" style="visibility: inherit;" fill="rgb(0, 0, 0)" stroke="rgb(204, 204, 204)" stroke-width="1px"></line><line x1="49.98400115966797" y1="35.721599960327154" x2="44.98400115966797" y2="35.721599960327154" style="visibility: inherit;" fill="rgb(0, 0, 0)" stroke="rgb(204, 204, 204)" stroke-width="1px"></line><line x1="49.98400115966797" y1="17.860799980163563" x2="44.98400115966797" y2="17.860799980163563" style="visibility: inherit;" fill="rgb(0, 0, 0)" stroke="rgb(204, 204, 204)" stroke-width="1px"></line><line x1="49.98400115966797" y1="0" x2="44.98400115966797" y2="0" style="visibility: inherit;" fill="rgb(0, 0, 0)" stroke="rgb(204, 204, 204)" stroke-width="1px"></line></g><g transform="translate(39.98400115966797, 0)"><text style="text-anchor: end; visibility: hidden; font-family: &quot;Helvetica Neue&quot;, sans-serif; font-size: 12px; font-weight: 200;" x="0" y="178.60799980163574" dx="0em" dy="0.3em" fill="rgb(50, 49, 63)" stroke="none" stroke-width="1px">-0.1</text><text style="text-anchor: end; visibility: inherit; font-family: &quot;Helvetica Neue&quot;, sans-serif; font-size: 12px; font-weight: 200;" x="0" y="160.74719982147218" dx="0em" dy="0.3em" fill="rgb(50, 49, 63)" stroke="none" stroke-width="1px">0</text><text style="text-anchor: end; visibility: hidden; font-family: &quot;Helvetica Neue&quot;, sans-serif; font-size: 12px; font-weight: 200;" x="0" y="142.8863998413086" dx="0em" dy="0.3em" fill="rgb(50, 49, 63)" stroke="none" stroke-width="1px">0.1</text><text style="text-anchor: end; visibility: inherit; font-family: &quot;Helvetica Neue&quot;, sans-serif; font-size: 12px; font-weight: 200;" x="0" y="125.02559986114501" dx="0em" dy="0.3em" fill="rgb(50, 49, 63)" stroke="none" stroke-width="1px">0.2</text><text style="text-anchor: end; visibility: hidden; font-family: &quot;Helvetica Neue&quot;, sans-serif; font-size: 12px; font-weight: 200;" x="0" y="107.16479988098145" dx="0em" dy="0.3em" fill="rgb(50, 49, 63)" stroke="none" stroke-width="1px">0.3</text><text style="text-anchor: end; visibility: inherit; font-family: &quot;Helvetica Neue&quot;, sans-serif; font-size: 12px; font-weight: 200;" x="0" y="89.30399990081787" dx="0em" dy="0.3em" fill="rgb(50, 49, 63)" stroke="none" stroke-width="1px">0.4</text><text style="text-anchor: end; visibility: hidden; font-family: &quot;Helvetica Neue&quot;, sans-serif; font-size: 12px; font-weight: 200;" x="0" y="71.4431999206543" dx="0em" dy="0.3em" fill="rgb(50, 49, 63)" stroke="none" stroke-width="1px">0.5</text><text style="text-anchor: end; visibility: inherit; font-family: &quot;Helvetica Neue&quot;, sans-serif; font-size: 12px; font-weight: 200;" x="0" y="53.58239994049073" dx="0em" dy="0.3em" fill="rgb(50, 49, 63)" stroke="none" stroke-width="1px">0.6</text><text style="text-anchor: end; visibility: hidden; font-family: &quot;Helvetica Neue&quot;, sans-serif; font-size: 12px; font-weight: 200;" x="0" y="35.721599960327154" dx="0em" dy="0.3em" fill="rgb(50, 49, 63)" stroke="none" stroke-width="1px">0.7</text><text style="text-anchor: end; visibility: inherit; font-family: &quot;Helvetica Neue&quot;, sans-serif; font-size: 12px; font-weight: 200;" x="0" y="17.860799980163563" dx="0em" dy="0.3em" fill="rgb(50, 49, 63)" stroke="none" stroke-width="1px">0.8</text><text style="text-anchor: end; visibility: hidden; font-family: &quot;Helvetica Neue&quot;, sans-serif; font-size: 12px; font-weight: 200;" x="0" y="0" dx="0em" dy="0.3em" fill="rgb(50, 49, 63)" stroke="none" stroke-width="1px">0.9</text></g><line x1="49.98400115966797" y1="0" x2="49.98400115966797" y2="178.60799980163574" fill="rgb(0, 0, 0)" stroke="rgb(204, 204, 204)" stroke-width="1px"></line></g></g><g transform="translate(49, 0)" clip-path="url(#clip_0)"><clipPath id="clip_0"><rect width="280" height="178"></rect></clipPath><g><g><g><line x1="0" y1="0" x2="0" y2="178.60799980163574" fill="rgb(0, 0, 0)" stroke="rgb(60, 60, 60)" stroke-width="1px" opacity="0.25"></line><line x1="35.001999855041504" y1="0" x2="35.001999855041504" y2="178.60799980163574" fill="rgb(0, 0, 0)" stroke="rgb(60, 60, 60)" stroke-width="1px" opacity="0.25"></line><line x1="70.00399971008301" y1="0" x2="70.00399971008301" y2="178.60799980163574" fill="rgb(0, 0, 0)" stroke="rgb(60, 60, 60)" stroke-width="1px" opacity="0.25"></line><line x1="105.00599956512451" y1="0" x2="105.00599956512451" y2="178.60799980163574" fill="rgb(0, 0, 0)" stroke="rgb(60, 60, 60)" stroke-width="1px" opacity="0.25"></line><line x1="140.00799942016602" y1="0" x2="140.00799942016602" y2="178.60799980163574" fill="rgb(0, 0, 0)" stroke="rgb(60, 60, 60)" stroke-width="1px" opacity="0.25"></line><line x1="175.00999927520752" y1="0" x2="175.00999927520752" y2="178.60799980163574" fill="rgb(0, 0, 0)" stroke="rgb(60, 60, 60)" stroke-width="1px" opacity="0.25"></line><line x1="210.01199913024902" y1="0" x2="210.01199913024902" y2="178.60799980163574" fill="rgb(0, 0, 0)" stroke="rgb(60, 60, 60)" stroke-width="1px" opacity="0.25"></line><line x1="245.01399898529053" y1="0" x2="245.01399898529053" y2="178.60799980163574" fill="rgb(0, 0, 0)" stroke="rgb(60, 60, 60)" stroke-width="1px" opacity="0.25"></line><line x1="280.01599884033203" y1="0" x2="280.01599884033203" y2="178.60799980163574" fill="rgb(0, 0, 0)" stroke="rgb(60, 60, 60)" stroke-width="1px" opacity="0.25"></line></g><g><line x1="0" y1="178.60799980163574" x2="280.01599884033203" y2="178.60799980163574" fill="rgb(0, 0, 0)" stroke="rgb(60, 60, 60)" stroke-width="1px" opacity="0.25"></line><line x1="0" y1="160.74719982147218" x2="280.01599884033203" y2="160.74719982147218" fill="rgb(0, 0, 0)" stroke="rgb(60, 60, 60)" stroke-width="1px" opacity="0.25"></line><line x1="0" y1="142.8863998413086" x2="280.01599884033203" y2="142.8863998413086" fill="rgb(0, 0, 0)" stroke="rgb(60, 60, 60)" stroke-width="1px" opacity="0.25"></line><line x1="0" y1="125.02559986114501" x2="280.01599884033203" y2="125.02559986114501" fill="rgb(0, 0, 0)" stroke="rgb(60, 60, 60)" stroke-width="1px" opacity="0.25"></line><line x1="0" y1="107.16479988098145" x2="280.01599884033203" y2="107.16479988098145" fill="rgb(0, 0, 0)" stroke="rgb(60, 60, 60)" stroke-width="1px" opacity="0.25"></line><line x1="0" y1="89.30399990081787" x2="280.01599884033203" y2="89.30399990081787" fill="rgb(0, 0, 0)" stroke="rgb(60, 60, 60)" stroke-width="1px" opacity="0.25"></line><line x1="0" y1="71.4431999206543" x2="280.01599884033203" y2="71.4431999206543" fill="rgb(0, 0, 0)" stroke="rgb(60, 60, 60)" stroke-width="1px" opacity="0.25"></line><line x1="0" y1="53.58239994049073" x2="280.01599884033203" y2="53.58239994049073" fill="rgb(0, 0, 0)" stroke="rgb(60, 60, 60)" stroke-width="1px" opacity="0.25"></line><line x1="0" y1="35.721599960327154" x2="280.01599884033203" y2="35.721599960327154" fill="rgb(0, 0, 0)" stroke="rgb(60, 60, 60)" stroke-width="1px" opacity="0.25"></line><line x1="0" y1="17.860799980163563" x2="280.01599884033203" y2="17.860799980163563" fill="rgb(0, 0, 0)" stroke="rgb(60, 60, 60)" stroke-width="1px" opacity="0.25"></line><line x1="0" y1="0" x2="280.01599884033203" y2="0" fill="rgb(0, 0, 0)" stroke="rgb(60, 60, 60)" stroke-width="1px" opacity="0.25"></line></g></g></g><g><g><line x1="0" y1="160.74719982147218" x2="280.01599884033203" y2="160.74719982147218" fill="rgb(0, 0, 0)" stroke="rgb(153, 153, 153)" stroke-width="1.5px"></line></g></g><g><g><line x1="35.001999855041504" y1="0" x2="35.001999855041504" y2="178.60799980163574" fill="rgb(0, 0, 0)" stroke="rgb(153, 153, 153)" stroke-width="1.5px"></line></g></g><g><g><g><g><g><path style="fill: none;" stroke="rgb(255, 112, 67)" stroke-width="2px" d="M44.79555941448212,-30.592328153354202L45.49559941158295,34.50133698465601L46.19563940868378,75.08194369717869L46.89567940578461,73.64909652447595L47.595719402885436,86.65248686767542L48.29575939998627,48.35953317107973L48.9957993970871,90.1843876587145L49.69583939418793,66.9233610498176L50.39587939128876,94.58949928397477L51.09591938838959,107.05320181881187L51.79595938549042,122.49336488849286L52.49599938259125,107.59194165998146L53.19603937969208,87.40152773221716L53.89607937679291,39.08464157790658L54.59611937389374,75.51726314088693L55.29615937099457,40.582662239427975L55.996199368095404,46.553147328643576L56.69623936519623,82.04077116596808L57.39627936229706,94.26937444630335L58.09631935939789,95.48270100512633L58.79635935649872,32.386852440821485L59.49639935359955,71.46427123420503L60.19643935070038,101.92524944512616L60.89647934780121,75.21880485582362L61.59651934490204,101.38582266650312L62.29655934200287,88.4946428016278L62.9965993391037,96.33800990727677L63.696639336204534,121.69463054630167L64.39667933330536,132.11475224909412L65.09671933040619,137.40335732630507L65.79675932750702,144.26250256500708L66.49679932460785,149.7829970859667L67.19683932170868,153.94538752058128L67.89687931880951,150.2748282331158L68.59691931591034,147.10521775790735L69.29695931301117,121.89371808508706L69.996999310112,134.74305222255413L70.69703930721283,95.72864352201444L71.39707930431366,120.06435841890807L72.0971193014145,88.24613071901899L72.79715929851533,101.42063483022726L73.49719929561616,124.93682752772278L74.19723929271699,114.01754066316497L74.89727928981782,118.49667022133255L75.59731928691865,135.1347552809811L76.29735928401948,141.81413436151405L76.99739928112031,95.090674070916L77.69743927822114,115.17611834482688L78.39747927532196,122.33781513005746L79.09751927242279,125.19641483578886L79.79755926952362,138.48857109870173L80.49759926662445,129.2831270791285L81.19763926372528,135.54637201560723L81.89767926082611,145.19543483246295L82.59771925792694,151.0589336858242L83.29775925502777,152.98737519626172L83.9977992521286,156.01291740300033L84.69783924922943,157.1982714547024L85.39787924633026,157.89659812905458L86.0979192434311,151.38950418240424L86.79795924053192,154.1522088612394L87.49799923763275,156.37755443097146L88.19803923473359,156.11041409850387L88.89807923183442,156.93803223252084L89.59811922893525,143.9743443937493L90.29815922603608,150.65998049186652L90.99819922313691,152.98825919240102L91.69823922023774,155.85391310542653L92.39827921733857,157.0204017368149L93.0983192144394,153.31271886616068L93.79835921154023,156.16877648279103L94.49839920864106,153.06507986457694L95.19843920574189,155.5685017462829L95.89847920284271,157.41357320683466L96.59851919994354,158.73901816117024L97.29855919704437,158.8321093372797L97.9985991941452,159.47037810098385L98.69863919124603,159.66547814267912L99.39867918834686,158.1441478481658L100.09871918544769,148.98110130949638L100.79875918254852,149.0433283468555L101.49879917964935,147.44956453903905L102.19883917675018,152.54747419882773L102.89887917385101,155.56985371513926L103.59891917095185,157.30444239684604L104.29895916805268,156.97777239419295L104.9989991651535,157.06833156553117L105.69903916225434,156.01944019349122L106.39907915935517,69.92556698862273L107.099119156456,104.74490028625006L107.79915915355683,120.15148588722067L108.49919915065766,135.91976923518592L109.19923914775849,124.98248423655983L109.89927914485932,135.18127187050243L110.59931914196015,145.25316727133776L111.29935913906098,148.3424598419628L111.99939913616181,143.24560472417988L112.69943913326264,148.97406173042154L113.39947913036346,153.06843727468413L114.09951912746429,155.9788405266105L114.79955912456512,157.85330980916686L115.49959912166595,158.93786072078626L116.19963911876678,159.50528097579723L116.89967911586761,159.69008204560265L117.59971911296844,122.23206644243669L118.29975911006927,137.4442628255772L118.9997991071701,132.4355308550296L119.69983910427094,137.25910425136283L120.39987910137177,145.6785338501192L121.0999190984726,150.8610591156364L121.79995909557343,154.33691131219854L122.49999909267426,156.7053556918028L123.20003908977509,158.16184324619226L123.90007908687592,153.16666964230834L124.60011908397675,156.00512694581747L125.30015908107758,157.7510317775519L126.00019907817841,90.95751862171917L126.70023907527924,110.63388228966531L127.40027907238007,127.15959219280211L128.1003190694809,139.84961196476308L128.80035906658173,147.4280751509162L129.50039906368255,122.74573457318948L130.2004390607834,137.60166713589803L130.9004790578842,146.82341173024875L131.60051905498503,152.3053242614521L132.30055905208587,155.02101728328293L133.0005990491867,102.79823283499285L133.70063904628753,125.83817992942227L134.40067904338835,138.4392021562492L135.1007190404892,130.71333078718524L135.80075903759,135.60332891998095L136.50079903469086,145.562611675523L137.20083903179167,151.57717074988648L137.90087902889252,155.19532565707954L138.60091902599333,157.32797864935046L139.30095902309418,158.6182163110952L140.000999020195,159.44875644988852L140.70103901729584,156.77721845935343L141.40107901439666,158.24359262665047L142.1011190114975,159.2399595554881L142.80115900859832,94.41980801344151L143.50119900569916,115.5412593601238L144.20123900279998,133.4570660609004L144.90127899990082,143.44289227734387L145.60131899700164,133.96915494714585L146.3013589941025,142.97379793234106L147.0013989912033,149.86923639056263L147.70143898830415,154.1068090768954L148.40147898540496,150.98710592755808L149.1015189825058,81.50260310871367L149.80155897960663,112.89508427920258L150.50159897670747,126.48537164836259L151.2016389738083,139.2665186504437L151.90167897090913,147.5590035215318L152.60171896800995,152.8181684581518L153.3017589651108,155.76151659485896L154.0017989622116,157.6948103628669L154.70183895931245,156.06946176027947L155.40187895641327,157.91064635856907L156.10191895351412,158.03687424662024L156.80195895061493,159.01720302098784L157.50199894771575,157.70399744958533L158.2020389448166,158.88295327936407L158.9020789419174,159.5937164210874L159.60211893901825,159.71849600292865L160.30215893611907,159.07891540077608L161.00219893321992,159.4172293143784L161.70223893032073,159.82007038295993L162.40227892742158,160.15532238118269L163.1023189245224,160.36975962136134L163.80235892162324,160.46479806108692L164.50239891872405,160.52843007877237L165.2024389158249,159.33738645673395L165.90247891292572,153.10420716845454L166.60251891002656,154.44960001555933L167.30255890712738,152.27522663442122L168.00259890422822,155.17554949285292L168.70263890132904,151.48444361372432L169.40267889842988,127.66701343123859L170.1027188955307,140.55775596103874L170.80275889263154,147.4770006482202L171.50279888973236,152.58492099614904L172.2028388868332,155.73874078140656L172.90287888393402,157.39167950951634L173.60291888103487,158.72634184420696L174.30295887813568,159.33549661675517L175.0029988752365,159.79932321888336L175.70303887233734,159.95546425094415L176.40307886943816,127.37614179053139L177.103118866539,121.3038347384506L177.80315886363982,136.5399619581734L178.50319886074067,141.68776912482602L179.20323885784148,127.79371598716638L179.90327885494233,140.66757173283912L180.60331885204315,124.47396196309296L181.303358849144,138.96613855330202L182.0033988462448,147.6703359350299L182.70343884334565,152.74013302329388L183.40347884044647,155.86838757773103L184.1035188375473,157.23088946333894L184.80355883464813,158.59109982948303L185.50359883174897,159.27739757946503L186.2036388288498,159.15431086902532L186.90367882595064,159.768675779253L187.60371882305145,160.13664745671358L188.3037588201523,159.38072758112645L189.0037988172531,159.41667259202865L189.70383881435396,159.89819212644048L190.40387881145477,159.2544918852327L191.10391880855562,157.90390954675487L191.80395880565644,159.00458684290075L192.50399880275725,159.6731692459698L193.2040387998581,159.926792529833L193.9040787969589,154.7245300612429L194.60411879405976,157.11637721187472L195.30415879116057,158.56627048148545L196.00419878826142,159.39525818279932L196.70423878536224,157.60852481277723L197.40427878246308,127.98591061707407L198.1043187795639,140.90365521902365L198.80435877666474,148.82748041780624L199.50439877376556,151.40455959482222L200.2044387708664,154.9831029933975L200.90447876796722,157.2071007045154L201.60451876506806,157.52292838581468L202.30455876216888,146.20311923192497L203.00459875926973,123.27825787326182L203.70463875637054,138.18341009666827L204.4046787534714,147.202657700464L205.1047187505722,151.1103967276684L205.80475874767305,147.08246711105994L206.50479874477386,149.73740008558428L207.2048387418747,154.08870384993196L207.90487873897553,156.72219161236055L208.60491873607637,157.9026639959085L209.3049587331772,158.99561238685274L210.004998730278,100.40741605524006L210.70503872737885,107.44885311053392L211.40507872447967,122.14189795766396L212.1051187215805,137.52300511377746L212.80515871868133,146.77173473640278L213.50519871578217,152.32935293599405L214.205238712883,149.33062129472845L214.90527870998383,153.2766583121943L215.60531870708465,156.1326958389038L216.3053587041855,154.57309769358676L217.0053987012863,155.93674374463868L217.70543869838716,157.85644639479844L218.40547869548797,155.4934457735269L219.10551869258882,156.67953063423073L219.80555868968963,111.24710380992424L220.50559868679048,130.26434740111227L221.2056386838913,142.4345784648017L221.90567868099214,149.74087324925097L222.60571867809296,153.96567752640811L223.3057586751938,156.43806459869222L224.00579867229462,157.8986380377668L224.70583866939546,152.83237431972555L225.40587866649628,111.38107396961959L226.10591866359712,131.12524183660827L226.80595866069794,141.53546188136414L227.50599865779876,149.11201208835024L228.2060386548996,152.88434542766495L228.90607865200042,154.72005413686793L229.60611864910126,137.29206787326413L230.30615864620208,146.65790486887394L231.00619864330292,152.2628775878014L231.70623864040374,155.57455665988866L232.40627863750458,120.86887376150713L233.1063186346054,136.80189329531572L233.80635863170625,146.32036498726546L234.50639862880706,151.9883961187856L235.2064386259079,152.70956506236195L235.90647862300872,155.89959692166127L236.60651862010957,157.8175337160695L237.30655861721038,158.9686364604387L238.00659861431123,149.5129357754944L238.70663861141205,153.99592739395845L239.4066786085129,156.63792668332727L240.1067186056137,17.50330500820442L240.80675860271455,71.44019286735868L241.50679859981537,105.32671144846779L242.2068385969162,127.38398538665992L242.90687859401703,140.71852309388532L243.60691859111787,148.72188589308337L244.3069585882187,151.37981756653005L245.0069985853195,152.40972393374372" fill="none"></path></g></g></g></g><g opacity="0.2"><g><g><g><path style="fill: none;" stroke="rgb(255, 112, 67)" stroke-width="2px" d="M43.39547942028046,-113.9903332367432L44.09551941738129,136.93505819104263L44.79555941448212,4.470746491426041L45.49559941158295,132.06531953182395L46.19563940868378,135.92423317805088L46.89567940578461,71.5004320983251L47.595719402885436,106.15427082307512L48.29575939998627,-9.07406382773658L48.9957993970871,152.91784643279817L49.69583939418793,32.033096826453686L50.39587939128876,136.0877962691473L51.09591938838959,125.74850954700293L51.79595938549042,145.65342658956303L52.49599938259125,85.23991273015297L53.19603937969208,57.11599294346324L53.89607937679291,-33.390564023890164L54.59611937389374,130.1661395527015L55.29615937099457,-11.81920693305571L55.996199368095404,55.508871662670614L56.69623936519623,135.2721951538727L57.39627936229706,112.61227693372352L58.09631935939789,97.30269069851401L58.79635935649872,-62.2569158862095L59.49639935359955,130.0803977448591L60.19643935070038,147.6167159760392L60.89647934780121,35.15913838506225L61.59651934490204,140.63634913961442L62.29655934200287,69.15787307611599L62.9965993391037,108.1030605395387L63.696639336204534,159.7295614539958L64.39667933330536,147.74493479074664L65.09671933040619,145.33626493830394L65.79675932750702,154.55122042008935L66.49679932460785,158.06373886597163L67.19683932170868,160.18897317185412L67.89687931880951,144.768989302261L68.59691931591034,142.3508020452726L69.29695931301117,84.07646857670572L69.996999310112,154.0170534284951L70.69703930721283,37.20703047167791L71.39707930431366,156.5679307640715L72.0971193014145,40.51878916932429L72.79715929851533,121.18239099700514L73.49719929561616,160.21111657392913L74.19723929271699,97.63861036633857L74.89727928981782,125.21536455858137L75.59731928691865,160.09188287044827L76.29735928401948,151.83320298231212L76.99739928112031,25.005483635024632L77.69743927822114,145.30428475569175L78.39747927532196,133.08036030790305L79.09751927242279,129.48431439438588L79.79755926952362,158.42680549307084L80.49759926662445,115.47496104976875L81.19763926372528,144.9412394203253L81.89767926082611,159.6690290577465L82.59771925792694,159.85418196586608L83.29775925502777,155.880037461918L83.9977992521286,160.55123071310828L84.69783924922943,158.9763025322555L85.39787924633026,158.9440881405829L86.0979192434311,141.62886326242875L86.79795924053192,158.29626587949207L87.49799923763275,159.71557278556958L88.19803923473359,155.70970359980248L88.89807923183442,158.17945943354636L89.59811922893525,124.52881263559203L90.29815922603608,160.68843463904233L90.99819922313691,156.48067724320282L91.69823922023774,160.1523939749648L92.39827921733857,158.77013468389742L93.0983192144394,147.75119456017939L93.79835921154023,160.45286290773657L94.49839920864106,148.40953493725584L95.19843920574189,159.32363456884178L95.89847920284271,160.18118039766233L96.59851919994354,160.7271855926736L97.29855919704437,158.9717461014439L97.9985991941452,160.42778124654006L98.69863919124603,159.95812820522207L99.39867918834686,155.86215240639586L100.09871918544769,135.23653150149227L100.79875918254852,149.1366689028942L101.49879917964935,145.05891882731436L102.19883917675018,160.19433868851075L102.89887917385101,160.1034229896066L103.59891917095185,159.9063254194062L104.29895916805268,156.48776739021338L104.9989991651535,157.20417032253846L105.69903916225434,154.44610313543131L106.39907915935517,-59.215242818680025L107.099119156456,156.97390023269105L107.79915915355683,143.2613642886766L108.49919915065766,159.57219425713384L109.19923914775849,108.57655673862068L109.89927914485932,150.47945332141632L110.59931914196015,160.36101037259078L111.29935913906098,152.97639869790038L111.99939913616181,135.60032204750547L112.69943913326264,157.5667472397841L113.39947913036346,159.21000059107797L114.09951912746429,160.34444540450005L114.79955912456512,160.66501373300144L115.49959912166595,160.5646870882154L116.19963911876678,160.35641135831366L116.89967911586761,159.96728365031078L117.59971911296844,66.04504303768776L118.29975911006927,160.26255740028802L118.9997991071701,124.92243289920822L119.69983910427094,144.4944643458627L120.39987910137177,158.3076782482538L121.0999190984726,158.63484701391218L121.79995909557343,159.55068960704176L122.49999909267426,160.2580222612092L123.20003908977509,160.3465745777765L123.90007908687592,145.67390923648242L124.60011908397675,160.2628129010812L125.30015908107758,160.36988902515355L126.00019907817841,-9.232751112029945L126.70023907527924,140.14842779158454L127.40027907238007,151.94815704750732L128.1003190694809,158.88464162270458L128.80035906658173,158.7957699301458L129.50039906368255,85.72222370659942L130.2004390607834,159.88556597996086L130.9004790578842,160.65602862177485L131.60051905498503,160.52819305825716L132.30055905208587,159.09455681602918L133.0005990491867,24.46405616255771L133.70063904628753,160.39810057106644L134.40067904338835,157.34073549648957L135.1007190404892,119.12452373358934L135.80075903759,142.93832611917452L136.50079903469086,160.50153580883608L137.20083903179167,160.59900936143168L137.90087902889252,160.62255801786915L138.60091902599333,160.52695813775682L139.30095902309418,160.55357280371237L140.000999020195,160.6945666580785L140.70103901729584,152.76991147355085L141.40107901439666,160.443153877596L142.1011190114975,160.73450994874457L142.80115900859832,-2.8104192996283643L143.50119900569916,147.22343638014723L144.20123900279998,160.33077611206528L144.90127899990082,158.42163160200909L145.60131899700164,119.75854895184881L146.3013589941025,156.48076241013388L147.0013989912033,160.212394077895L147.70143898830415,160.46316810639456L148.40147898540496,146.30755120355212L149.1015189825058,-22.724151119552943L149.80155897960663,159.98380603493598L150.50159897670747,146.8708027021026L151.2016389738083,158.43823915356535L151.90167897090913,159.99773082816392L152.60171896800995,160.70691586308186L153.3017589651108,160.17653879991968L154.0017989622116,160.5947510148788L154.70183895931245,153.63143885639835L155.40187895641327,160.67242325600347L156.10191895351412,158.22621607869706L156.80195895061493,160.4876961825392L157.50199894771575,155.73418909248159L158.2020389448166,160.6513870240322L158.9020789419174,160.65986113367245L159.60211893901825,159.9056653756905L160.30215893611907,158.11954449754722L161.00219893321992,159.9247001847819L161.70223893032073,160.42433198583223L162.40227892742158,160.65820037851682L163.1023189245224,160.69141548162935L163.80235892162324,160.60735572067534L164.50239891872405,160.62387810530055L165.2024389158249,157.5508210236763L165.90247891292572,143.75443823603547L166.60251891002656,156.4676892862165L167.30255890712738,149.01366656271404L168.00259890422822,159.52603378050054L168.70263890132904,145.9477847950314L169.40267889842988,91.94086815751L170.1027188955307,159.893869755739L170.80275889263154,157.8558676789924L171.50279888973236,160.24680151804233L172.2028388868332,160.46947045929284L172.90287888393402,159.87108760168104L173.60291888103487,160.7283353462429L174.30295887813568,160.24922877557748L175.0029988752365,160.4950631220757L175.70303887233734,160.18967579903534L176.40307886943816,78.50715809991225L177.103118866539,112.19537416032942L177.80315886363982,159.3941527877576L178.50319886074067,149.40947987480496L179.20323885784148,106.95263628067691L179.90327885494233,159.97835535134828L180.60331885204315,100.18354730847368L181.303358849144,160.70440343861566L182.0033988462448,160.72663200762173L182.70343884334565,160.3448286556898L183.40347884044647,160.56076940938675L184.1035188375473,159.2746422917508L184.80355883464813,160.63141537869916L185.50359883174897,160.30684420443805L186.2036388288498,158.96968080336575L186.90367882595064,160.69022314459454L187.60371882305145,160.68860497290444L188.3037588201523,158.2468477677458L189.0037988172531,159.47059010838194L189.70383881435396,160.62047142805824L190.40387881145477,158.2889415234211L191.10391880855562,155.87803603903814L191.80395880565644,160.65560278711956L192.50399880275725,160.67604285057342L193.2040387998581,160.3072274556278L193.9040787969589,146.92113635835773L194.60411879405976,160.70414793782248L195.30415879116057,160.74111038590155L196.00419878826142,160.63873973477013L196.70423878536224,154.92842475774415L197.40427878246308,83.5519893235193L198.1043187795639,160.28027212194803L198.80435877666474,160.71321821598013L199.50439877376556,155.27017836034616L200.2044387708664,160.35091809126044L200.90447876796722,160.54309727119227L201.60451876506806,157.99666990776365L202.30455876216888,129.22340550109044L203.00459875926973,88.89096583526707L203.70463875637054,160.54113843177794L204.4046787534714,160.73152910615755L205.1047187505722,156.97200526847502L205.80475874767305,141.0405726861473L206.50479874477386,153.71979954737077L207.2048387418747,160.61565949645347L207.90487873897553,160.67242325600347L208.60491873607637,159.67337257123046L209.3049587331772,160.63503497326911L210.004998730278,12.525121557821024L210.70503872737885,118.01100869347471L211.40507872447967,144.18146522835906L212.1051187215805,160.59466584794774L212.80515871868133,160.64482917034076L213.50519871578217,160.66578023538096L214.205238712883,144.83252383283008L214.90527870998383,159.19571383839303L215.60531870708465,160.41675212896808L216.3053587041855,152.23370047561122L217.0053987012863,157.9822128212166L217.70543869838716,160.73600037003808L218.40547869548797,151.9489448416196L219.10551869258882,158.45865792528645L219.80555868968963,43.098463573464585L220.50559868679048,158.7902127878943L221.2056386838913,160.68992506033584L221.90567868099214,160.70031542592488L222.60571867809296,160.30288394214386L223.3057586751938,160.1466452071184L224.00579867229462,160.08949819637866L224.70583866939546,145.23297874266365L225.40587866649628,49.20412344446066L226.10591866359712,160.7414936370913L226.80595866069794,157.150791948498L227.50599865779876,160.47683739882933L228.2060386548996,158.54284543663704L228.90607865200042,157.47361720067244L229.60611864910126,111.15008847785843L230.30615864620208,160.7066603622887L231.00619864330292,160.67033666619255L231.70623864040374,160.54207526801957L232.40627863750458,68.81034941393482L233.1063186346054,160.70142259602864L233.80635863170625,160.59807252519005L234.50639862880706,160.4904428160658L235.2064386259079,153.79131847772652L235.90647862300872,160.68464471061026L236.60651862010957,160.6944389076819L237.30655861721038,160.69529057699248L238.00659861431123,135.32938474807798L238.70663861141205,160.72041482165451L239.4066786085129,160.60092561738048L240.1067186056137,-191.19862750447982L240.80675860271455,152.34552465609005L241.50679859981537,156.15648932013147L242.2068385969162,160.46989629394812L242.90687859401703,160.72032965472346L243.60691859111787,160.72693009188043L244.3069585882187,155.36671507670013L245.0069985853195,153.95458348456424" fill="none"></path></g></g></g></g></g></g><g transform="translate(49, 178)" clip-path="url(#clip_1)"><clipPath id="clip_1"><rect width="280" height="21"></rect></clipPath><g><g><line x1="0" y1="0" x2="0" y2="5" style="visibility: inherit;" fill="rgb(0, 0, 0)" stroke="rgb(204, 204, 204)" stroke-width="1px"></line><line x1="35.001999855041504" y1="0" x2="35.001999855041504" y2="5" style="visibility: inherit;" fill="rgb(0, 0, 0)" stroke="rgb(204, 204, 204)" stroke-width="1px"></line><line x1="70.00399971008301" y1="0" x2="70.00399971008301" y2="5" style="visibility: inherit;" fill="rgb(0, 0, 0)" stroke="rgb(204, 204, 204)" stroke-width="1px"></line><line x1="105.00599956512451" y1="0" x2="105.00599956512451" y2="5" style="visibility: inherit;" fill="rgb(0, 0, 0)" stroke="rgb(204, 204, 204)" stroke-width="1px"></line><line x1="140.00799942016602" y1="0" x2="140.00799942016602" y2="5" style="visibility: inherit;" fill="rgb(0, 0, 0)" stroke="rgb(204, 204, 204)" stroke-width="1px"></line><line x1="175.00999927520752" y1="0" x2="175.00999927520752" y2="5" style="visibility: inherit;" fill="rgb(0, 0, 0)" stroke="rgb(204, 204, 204)" stroke-width="1px"></line><line x1="210.01199913024902" y1="0" x2="210.01199913024902" y2="5" style="visibility: inherit;" fill="rgb(0, 0, 0)" stroke="rgb(204, 204, 204)" stroke-width="1px"></line><line x1="245.01399898529053" y1="0" x2="245.01399898529053" y2="5" style="visibility: inherit;" fill="rgb(0, 0, 0)" stroke="rgb(204, 204, 204)" stroke-width="1px"></line><line x1="280.01599884033203" y1="0" x2="280.01599884033203" y2="5" style="visibility: inherit;" fill="rgb(0, 0, 0)" stroke="rgb(204, 204, 204)" stroke-width="1px"></line></g><g transform="translate(0, 8)"><text style="text-anchor: middle; visibility: hidden; font-family: &quot;Helvetica Neue&quot;, sans-serif; font-size: 12px; font-weight: 200;" x="0" y="0" dx="0em" dy="0.95em" fill="rgb(50, 49, 63)" stroke="none" stroke-width="1px">-5k</text><text style="text-anchor: middle; visibility: hidden; font-family: &quot;Helvetica Neue&quot;, sans-serif; font-size: 12px; font-weight: 200;" x="35.001999855041504" y="0" dx="0em" dy="0.95em" fill="rgb(50, 49, 63)" stroke="none" stroke-width="1px">0</text><text style="text-anchor: middle; visibility: hidden; font-family: &quot;Helvetica Neue&quot;, sans-serif; font-size: 12px; font-weight: 200;" x="70.00399971008301" y="0" dx="0em" dy="0.95em" fill="rgb(50, 49, 63)" stroke="none" stroke-width="1px">5k</text><text style="text-anchor: middle; visibility: hidden; font-family: &quot;Helvetica Neue&quot;, sans-serif; font-size: 12px; font-weight: 200;" x="105.00599956512451" y="0" dx="0em" dy="0.95em" fill="rgb(50, 49, 63)" stroke="none" stroke-width="1px">10k</text><text style="text-anchor: middle; visibility: hidden; font-family: &quot;Helvetica Neue&quot;, sans-serif; font-size: 12px; font-weight: 200;" x="140.00799942016602" y="0" dx="0em" dy="0.95em" fill="rgb(50, 49, 63)" stroke="none" stroke-width="1px">15k</text><text style="text-anchor: middle; visibility: hidden; font-family: &quot;Helvetica Neue&quot;, sans-serif; font-size: 12px; font-weight: 200;" x="175.00999927520752" y="0" dx="0em" dy="0.95em" fill="rgb(50, 49, 63)" stroke="none" stroke-width="1px">20k</text><text style="text-anchor: middle; visibility: hidden; font-family: &quot;Helvetica Neue&quot;, sans-serif; font-size: 12px; font-weight: 200;" x="210.01199913024902" y="0" dx="0em" dy="0.95em" fill="rgb(50, 49, 63)" stroke="none" stroke-width="1px">25k</text><text style="text-anchor: middle; visibility: hidden; font-family: &quot;Helvetica Neue&quot;, sans-serif; font-size: 12px; font-weight: 200;" x="245.01399898529053" y="0" dx="0em" dy="0.95em" fill="rgb(50, 49, 63)" stroke="none" stroke-width="1px">30k</text><text style="text-anchor: middle; visibility: hidden; font-family: &quot;Helvetica Neue&quot;, sans-serif; font-size: 12px; font-weight: 200;" x="280.01599884033203" y="0" dx="0em" dy="0.95em" fill="rgb(50, 49, 63)" stroke="none" stroke-width="1px">35k</text></g><line x1="0" y1="0" x2="280.01599884033203" y2="0" fill="rgb(0, 0, 0)" stroke="rgb(204, 204, 204)" stroke-width="1px"></line></g></g></g></g></svg>