<?xml version="1.0" encoding="UTF-8"?>
<svg width="205px" height="69px" viewBox="0 0 205 69" version="1.1" xmlns="http://www.w3.org/2000/svg" xmlns:xlink="http://www.w3.org/1999/xlink">
    <title>Logo/asTech/Colour-Tag</title>
    <g id="Logo/asTech/Colour-Tag" stroke="none" stroke-width="1" fill="none" fill-rule="evenodd">
        <g id="Group" transform="translate(0.000000, 0.000000)" fill="#2A7DE1" fill-rule="nonzero">
            <polygon id="Path" points="29.1 35.7 45.2 26.4 45.2 19.9 29.1 29.2 21.7 25 21.7 31.5"></polygon>
            <path d="M47.7,40.7 L29.8,51 C29.4,51.3 28.8,51.3 28.4,51 L10.5,40.7 C10.1,40.4 9.8,40 9.8,39.5 L9.8,18.8 C9.8,18.3 10.1,17.8 10.5,17.6 L28.4,7.3 C28.8,7 29.4,7 29.8,7.3 L47.7,17.6 C48.1,17.9 48.4,18.3 48.4,18.8 L48.4,39.5 C48.5,40 48.2,40.4 47.7,40.7 Z M58.2,29.1 C58.2,13 45.2,0 29.1,0 C13,0 0,13 0,29.1 C0,45.2 13,58.2 29.1,58.2 C45.2,58.2 58.2,45.2 58.2,29.1 Z" id="Shape"></path>
        </g>
        <g id="Group" transform="translate(70.700000, 55.100000)" fill="#737373" fill-rule="nonzero">
            <path d="M0,10.5 L0,0.5 L2.8,0.5 C3.7,0.5 4.4,0.7 5.1,1.1 C5.8,1.5 6.3,2 6.6,2.7 C7,3.4 7.1,4.2 7.2,5.1 L7.2,5.7 C7.2,6.6 7,7.5 6.7,8.2 C6.3,8.9 5.8,9.4 5.1,9.8 C4.4,10.2 3.6,10.4 2.8,10.4 L0,10.4 L0,10.5 Z M1.3,1.6 L1.3,9.4 L2.7,9.4 C3.7,9.4 4.5,9.1 5.1,8.5 C5.7,7.9 5.9,7 5.9,5.8 L5.9,5.2 C5.9,4.1 5.6,3.2 5.1,2.6 C4.6,2 3.8,1.7 2.8,1.6 L1.3,1.6 Z" id="Shape"></path>
            <path d="M12.6,4.2 C12.4,4.2 12.2,4.2 12,4.2 C11.2,4.2 10.6,4.6 10.3,5.3 L10.3,10.5 L9,10.5 L9,3.1 L10.2,3.1 L10.2,4 C10.6,3.3 11.2,3 12,3 C12.2,3 12.4,3 12.6,3.1 L12.6,4.2 Z" id="Path"></path>
            <path d="M13.7,1.1 C13.7,0.9 13.8,0.7 13.9,0.6 C14,0.5 14.2,0.4 14.5,0.4 C14.8,0.4 14.9,0.5 15.1,0.6 C15.3,0.7 15.3,0.9 15.3,1.1 C15.3,1.3 15.2,1.5 15.1,1.6 C15,1.7 14.8,1.8 14.5,1.8 C14.2,1.8 14.1,1.7 13.9,1.6 C13.8,1.5 13.7,1.3 13.7,1.1 Z M15.1,10.5 L13.8,10.5 L13.8,3.1 L15.1,3.1 L15.1,10.5 Z" id="Shape"></path>
            <polygon id="Path" points="19.6 8.8 21.4 3.1 22.7 3.1 20 10.5 19 10.5 16.3 3.1 17.6 3.1"></polygon>
            <path d="M27,10.6 C26,10.6 25.2,10.3 24.6,9.6 C24,8.9 23.7,8.1 23.7,7 L23.7,6.8 C23.7,6.1 23.8,5.4 24.1,4.8 C24.4,4.2 24.8,3.8 25.3,3.4 C25.8,3.1 26.3,2.9 26.9,2.9 C27.9,2.9 28.6,3.2 29.1,3.9 C29.6,4.6 29.9,5.4 29.9,6.6 L29.9,7.1 L24.9,7.1 C24.9,7.8 25.1,8.4 25.5,8.9 C25.9,9.3 26.4,9.6 27.1,9.6 C27.5,9.6 27.9,9.5 28.2,9.3 C28.5,9.1 28.8,8.9 29,8.6 L29.8,9.2 C29.2,10.1 28.3,10.6 27,10.6 Z M26.9,4 C26.4,4 26,4.2 25.6,4.6 C25.3,5 25,5.5 25,6.2 L28.7,6.2 L28.7,6.1 C28.7,5.5 28.5,5 28.2,4.6 C27.8,4.2 27.4,4 26.9,4 Z" id="Shape"></path>
            <path d="M32.6,3.1 L32.6,4 C33.2,3.3 33.9,2.9 34.8,2.9 C36.4,2.9 37.2,3.8 37.2,5.5 L37.2,10.4 L35.9,10.4 L35.9,5.5 C35.9,5 35.8,4.6 35.5,4.3 C35.3,4 34.9,3.9 34.4,3.9 C34,3.9 33.6,4 33.3,4.2 C33,4.4 32.7,4.7 32.6,5.1 L32.6,10.4 L31.3,10.4 L31.3,3 L32.6,3 L32.6,3.1 Z" id="Path"></path>
            <path d="M48.8,6.9 C48.8,8 48.5,8.9 48,9.6 C47.5,10.3 46.8,10.6 45.9,10.6 C45,10.6 44.2,10.3 43.7,9.6 L43.6,10.5 L42.4,10.5 L42.4,0 L43.7,0 L43.7,3.9 C44.2,3.3 44.9,2.9 45.8,2.9 C46.7,2.9 47.4,3.2 47.9,3.9 C48.4,4.6 48.7,5.5 48.7,6.7 L48.7,6.9 L48.8,6.9 Z M47.6,6.7 C47.6,5.8 47.4,5.2 47.1,4.7 C46.8,4.2 46.3,4 45.7,4 C44.9,4 44.3,4.4 43.9,5.2 L43.9,8.4 C44.3,9.2 44.9,9.6 45.7,9.6 C46.3,9.6 46.8,9.4 47.1,8.9 C47.4,8.4 47.6,7.7 47.6,6.7 Z" id="Shape"></path>
            <path d="M52.8,8.6 L54.5,3.1 L55.9,3.1 L52.9,11.6 C52.4,12.8 51.7,13.4 50.7,13.4 L50.5,13.4 L50,13.3 L50,12.3 L50.3,12.3 C50.7,12.3 51.1,12.2 51.3,12 C51.5,11.8 51.7,11.5 51.9,11 L52.2,10.2 L49.6,2.9 L51,2.9 L52.8,8.6 Z" id="Path"></path>
        </g>
        <g id="Group" transform="translate(130.600000, 54.800000)" fill="#737373" fill-rule="nonzero">
            <path d="M0,10.8 L0,9.6 L1.1,9.4 L1.1,2.3 L0,2.1 L0,0.9 L4.7,0.9 C5.5,0.9 6.1,1 6.7,1.3 C7.2,1.5 7.7,1.9 8,2.3 C8.3,2.7 8.4,3.3 8.4,3.9 C8.4,4.5 8.3,5 8,5.5 C7.7,6 7.3,6.3 6.8,6.6 C6.3,6.9 5.7,7 5,7 L3.1,7 L3.1,9.5 L4.2,9.7 L4.2,10.9 L1.1,10.9 L0,10.9 L0,10.8 Z M3.1,5.3 L4.7,5.3 C5.3,5.3 5.7,5.2 6,4.9 C6.3,4.7 6.4,4.3 6.4,3.8 C6.4,3.3 6.3,3 6,2.7 C5.7,2.4 5.3,2.3 4.7,2.3 L3.1,2.3 L3.1,5.3 Z M6.4,10.8 L4.7,6.5 L6.5,6.1 L7.9,9.4 L8.7,9.6 L8.7,10.8 L6.4,10.8 Z" id="Shape"></path>
            <path d="M12.9,10.9 C12.2,10.9 11.6,10.7 11,10.4 C10.5,10.1 10.1,9.7 9.8,9.1 C9.5,8.6 9.4,7.9 9.4,7.2 L9.4,6.9 C9.4,6.2 9.5,5.5 9.8,4.9 C10.1,4.3 10.5,3.9 11,3.6 C11.5,3.3 12.1,3.1 12.8,3.1 C13.5,3.1 14,3.2 14.5,3.5 C15,3.8 15.3,4.1 15.5,4.6 C15.7,5.1 15.9,5.7 15.9,6.4 L15.9,7.5 L11.6,7.5 L11.6,7.5 C11.6,7.8 11.7,8.1 11.8,8.4 C11.9,8.7 12.1,8.9 12.4,9 C12.6,9.1 12.9,9.2 13.3,9.2 C13.7,9.2 14,9.2 14.3,9.1 C14.6,9 14.9,8.9 15.2,8.7 L15.7,9.9 C15.4,10.1 15,10.4 14.5,10.5 C14.1,10.9 13.5,10.9 12.9,10.9 Z M11.5,6.4 L14,6.4 L14,6.2 C14,5.9 14,5.6 13.9,5.4 C13.8,5.2 13.7,5 13.5,4.9 C13.3,4.8 13.1,4.7 12.8,4.7 C12.5,4.7 12.3,4.8 12.1,4.9 C11.9,5 11.8,5.2 11.7,5.5 C11.6,5.8 11.5,6 11.5,6.4 L11.5,6.4 Z" id="Shape"></path>
            <path d="M16.6,13.6 L16.6,12.4 L17.6,12.2 L17.6,4.8 L16.5,4.6 L16.5,3.4 L19.4,3.4 L19.5,4.3 C19.7,4 20,3.7 20.3,3.6 C20.6,3.4 21,3.3 21.4,3.3 C22,3.3 22.5,3.5 22.9,3.8 C23.3,4.1 23.6,4.6 23.9,5.2 C24.1,5.8 24.2,6.5 24.2,7.2 L24.2,7.3 C24.2,8 24.1,8.7 23.9,9.2 C23.7,9.7 23.3,10.2 22.9,10.5 C22.5,10.8 22,11 21.4,11 C21,11 20.7,10.9 20.4,10.8 C20.1,10.7 19.8,10.4 19.6,10.2 L19.6,12.3 L20.6,12.5 L20.6,13.7 L16.6,13.7 L16.6,13.6 Z M20.8,9.4 C21.3,9.4 21.7,9.2 21.9,8.8 C22.1,8.4 22.2,7.9 22.2,7.3 L22.2,7.2 C22.2,6.7 22.1,6.3 22,6 C21.9,5.7 21.7,5.4 21.5,5.2 C21.3,5 21,4.9 20.7,4.9 C20.4,4.9 20.2,5 20,5.1 C19.8,5.2 19.6,5.4 19.5,5.6 L19.5,8.8 C19.6,9 19.8,9.2 20,9.3 C20.2,9.3 20.5,9.4 20.8,9.4 Z" id="Shape"></path>
            <path d="M27.6,10.9 C26.9,10.9 26.3,10.7 25.8,10.3 C25.4,9.9 25.2,9.4 25.2,8.7 C25.2,8.2 25.3,7.8 25.6,7.5 C25.9,7.1 26.2,6.9 26.7,6.7 C27.2,6.5 27.8,6.4 28.5,6.4 L29.5,6.4 L29.5,5.9 C29.5,5.5 29.4,5.3 29.2,5 C29,4.8 28.7,4.7 28.3,4.7 C28.1,4.7 27.9,4.7 27.7,4.8 C27.5,4.9 27.4,4.9 27.2,5 L27,6 L25.6,6 L25.6,4.1 C26,3.9 26.4,3.7 26.9,3.6 C27.4,3.5 27.9,3.4 28.4,3.4 C29.4,3.4 30.1,3.6 30.7,4.1 C31.3,4.5 31.5,5.2 31.5,6 L31.5,9 C31.5,9.1 31.5,9.2 31.5,9.3 C31.5,9.4 31.5,9.5 31.5,9.6 L32.3,9.7 L32.3,10.9 L29.8,10.9 C29.7,10.8 29.7,10.6 29.6,10.5 C29.5,10.4 29.5,10.2 29.5,10.1 C29.3,10.4 29,10.6 28.7,10.8 C28.4,10.8 28,10.9 27.6,10.9 Z M28.1,9.5 C28.4,9.5 28.6,9.4 28.9,9.3 C29.2,9.2 29.3,9 29.5,8.8 L29.5,7.6 L28.5,7.6 C28.1,7.6 27.7,7.7 27.5,7.9 C27.3,8.1 27.2,8.3 27.2,8.6 C27.2,8.9 27.3,9.1 27.4,9.2 C27.6,9.4 27.8,9.5 28.1,9.5 Z" id="Shape"></path>
            <path d="M33.1,10.8 L33.1,9.6 L34.1,9.4 L34.1,4.8 L33,4.6 L33,3.4 L36.1,3.4 L36.1,9.4 L37.1,9.6 L37.1,10.8 L33.1,10.8 Z M34,1.8 L34,0.1 L36.1,0.1 L36.1,1.8 L34,1.8 Z" id="Shape"></path>
            <path d="M37.8,10.8 L37.8,9.6 L38.8,9.4 L38.8,4.8 L37.7,4.6 L37.7,3.4 L40.6,3.4 L40.7,4.3 L40.7,4.5 C40.9,4.1 41.1,3.8 41.4,3.6 C41.7,3.4 42,3.3 42.4,3.3 C42.5,3.3 42.6,3.3 42.8,3.3 C42.9,3.3 43.1,3.3 43.2,3.4 L43,5.2 L42,5.1 C41.7,5.1 41.5,5.1 41.3,5.2 C41.1,5.3 41,5.5 40.8,5.7 L40.8,9.3 L41.8,9.5 L41.8,10.7 L37.8,10.7 L37.8,10.8 Z" id="Path"></path>
            <path d="M43.7,10.8 L43.7,9.6 L44.7,9.4 L44.7,4.8 L43.6,4.6 L43.6,3.4 L46.7,3.4 L46.7,9.4 L47.7,9.6 L47.7,10.8 L43.7,10.8 Z M44.6,1.8 L44.6,0.1 L46.7,0.1 L46.7,1.8 L44.6,1.8 Z" id="Shape"></path>
            <path d="M48.4,10.8 L48.4,9.6 L49.4,9.4 L49.4,4.8 L48.3,4.8 L48.3,3.4 L49.4,3.4 L49.4,2.6 C49.4,1.8 49.6,1.1 50.1,0.7 C50.6,0.3 51.2,0 52.1,0 C52.3,0 52.5,0 52.8,0.1 C53,0.1 53.2,0.2 53.4,0.2 L53.2,1.7 C53.1,1.7 53,1.6 52.8,1.6 C52.7,1.6 52.5,1.6 52.4,1.6 C52.1,1.6 51.8,1.7 51.6,1.9 C51.4,2.1 51.3,2.3 51.3,2.7 L51.3,3.5 L53,3.5 L53,4.9 L51.3,4.9 L51.3,9.5 L52.6,9.7 L52.6,10.9 L48.4,10.9 L48.4,10.8 Z" id="Path"></path>
            <path d="M55.9,13.8 C55.7,13.8 55.5,13.8 55.3,13.8 C55.1,13.8 54.9,13.7 54.7,13.7 L54.9,12.2 C55,12.2 55.1,12.2 55.2,12.2 C55.3,12.2 55.4,12.2 55.5,12.2 C55.8,12.2 56,12.1 56.2,12 C56.4,11.8 56.6,11.6 56.7,11.4 L56.9,10.9 L54.4,4.8 L53.5,4.7 L53.5,3.5 L57.4,3.5 L57.4,4.7 L56.5,4.8 L57.7,8.1 L57.8,8.5 L57.8,8.5 L59.2,4.8 L58.3,4.7 L58.3,3.5 L62,3.5 L62,4.7 L61.2,4.8 L58.4,12 C58.3,12.3 58.1,12.7 57.9,12.9 C57.7,13.2 57.4,13.4 57.1,13.6 C56.8,13.7 56.4,13.8 55.9,13.8 Z" id="Path"></path>
        </g>
        <g id="Group" transform="translate(70.700000, 10.900000)" fill="#000000" fill-rule="nonzero">
            <path d="M6.7,30.2 C4.6,30.2 3,29.6 1.8,28.5 C0.6,27.4 0,25.9 0,24 C0,22.7 0.4,21.6 1.1,20.6 C1.8,19.6 2.9,18.8 4.2,18.3 C5.6,17.7 7.3,17.5 9.3,17.5 L12,17.5 L12,16 C12,15 11.7,14.2 11.1,13.6 C10.5,13 9.7,12.7 8.5,12.7 C7.9,12.7 7.4,12.8 6.9,12.9 C6.4,13 6,13.3 5.6,13.5 L5.2,16.2 L1.2,16.2 L1.1,10.8 C2.2,10.2 3.4,9.7 4.6,9.3 C5.8,8.9 7.3,8.7 8.8,8.7 C11.5,8.7 13.6,9.3 15.2,10.6 C16.8,11.9 17.6,13.6 17.6,16 L17.6,24.5 C17.6,24.8 17.6,25.1 17.6,25.3 C17.6,25.6 17.6,25.8 17.7,26.1 L19.9,26.4 L19.9,29.7 L13,29.7 C12.9,29.3 12.7,29 12.6,28.6 C12.5,28.2 12.4,27.8 12.3,27.4 C11.6,28.2 10.9,28.9 10,29.4 C9,29.9 7.9,30.2 6.7,30.2 Z M8.2,26.1 C9,26.1 9.7,25.9 10.4,25.6 C11.1,25.2 11.6,24.8 12,24.2 L12,20.9 L9.2,20.9 C8,20.9 7,21.2 6.4,21.7 C5.8,22.3 5.5,22.9 5.5,23.7 C5.5,24.4 5.7,25 6.2,25.4 C6.7,25.9 7.4,26.1 8.2,26.1 Z" id="Shape"></path>
            <path d="M30.7,30.2 C29.2,30.2 27.7,30.1 26.4,29.8 C25.1,29.5 23.8,29.1 22.6,28.5 L22.5,22.7 L26.4,22.7 L27.1,25.7 C27.5,25.9 28,26.1 28.5,26.2 C29,26.3 29.6,26.4 30.3,26.4 C31.5,26.4 32.4,26.2 32.9,25.8 C33.4,25.4 33.7,24.9 33.7,24.3 C33.7,23.7 33.4,23.2 32.9,22.8 C32.4,22.4 31.3,22 29.7,21.6 C27.3,21.1 25.4,20.3 24.3,19.2 C23.1,18.1 22.6,16.8 22.6,15.1 C22.6,14 22.9,12.9 23.5,12 C24.1,11.1 25,10.3 26.2,9.7 C27.4,9.1 28.9,8.8 30.8,8.8 C32.4,8.8 33.8,8.9 35.1,9.2 C36.4,9.5 37.5,9.9 38.4,10.4 L38.5,16.1 L34.6,16.1 L34,13.4 C33.7,13.1 33.3,13 32.8,12.8 C32.3,12.7 31.8,12.6 31.2,12.6 C30.2,12.6 29.5,12.8 28.9,13.2 C28.4,13.6 28.1,14.1 28.1,14.7 C28.1,15.1 28.2,15.4 28.4,15.7 C28.6,16 29,16.3 29.5,16.6 C30,16.9 30.8,17.1 31.9,17.4 C34.5,18 36.3,18.8 37.5,19.7 C38.7,20.7 39.3,22 39.3,23.8 C39.3,25.7 38.6,27.3 37.2,28.5 C35.5,29.6 33.5,30.2 30.7,30.2 Z" id="Path"></path>
            <polygon id="Path" points="47.4 29.8 47.4 27.4 50.5 26.9 50.5 4.9 44.2 4.9 43.6 8.8 40.8 8.8 40.8 2 64 2 64 8.7 61.2 8.7 60.6 4.8 54.3 4.8 54.3 26.8 57.4 27.3 57.4 29.7 47.4 29.7"></polygon>
            <path d="M73.4,30.2 C71.5,30.2 69.8,29.8 68.4,28.9 C67,28 65.9,26.8 65.1,25.3 C64.3,23.7 63.9,21.9 63.9,19.9 L63.9,19 C63.9,17 64.3,15.3 65.1,13.7 C65.9,12.2 67,10.9 68.3,10 C69.6,9.1 71.1,8.7 72.7,8.7 C74.6,8.7 76.1,9.1 77.4,9.8 C78.7,10.5 79.6,11.6 80.2,13 C80.8,14.4 81.2,16 81.2,17.9 L81.2,20.3 L67.8,20.3 L67.7,20.4 C67.7,21.7 68,22.9 68.4,23.9 C68.8,24.9 69.5,25.7 70.3,26.3 C71.1,26.9 72.1,27.2 73.3,27.2 C74.6,27.2 75.7,27 76.7,26.7 C77.7,26.3 78.5,25.8 79.2,25.2 L80.7,27.6 C80,28.3 79,28.9 77.8,29.4 C76.6,29.9 75.1,30.2 73.4,30.2 Z M68,17.4 L77.5,17.4 L77.5,16.9 C77.5,15.9 77.3,15 77,14.2 C76.6,13.4 76.1,12.8 75.4,12.3 C74.7,11.8 73.8,11.6 72.8,11.6 C72,11.6 71.2,11.8 70.5,12.3 C69.8,12.8 69.2,13.5 68.8,14.3 C68.4,15.3 68.1,16.2 68,17.4 L68,17.4 Z" id="Shape"></path>
            <path d="M93.9,30.2 C92,30.2 90.4,29.8 89,28.9 C87.6,28 86.5,26.8 85.8,25.3 C85,23.7 84.7,21.9 84.7,19.9 L84.7,19 C84.7,17 85.1,15.3 85.8,13.7 C86.5,12.1 87.6,10.9 89,10 C90.4,9.1 92,8.6 94,8.6 C95.7,8.6 97.1,8.9 98.4,9.4 C99.7,9.9 100.7,10.7 101.6,11.7 L101.7,16.7 L98.8,16.7 L98.2,13.1 C97.8,12.7 97.2,12.3 96.6,12 C95.9,11.7 95.2,11.6 94.3,11.6 C93.2,11.6 92.2,11.9 91.3,12.6 C90.5,13.3 89.8,14.1 89.3,15.3 C88.8,16.4 88.6,17.6 88.6,19 L88.6,19.8 C88.6,21.3 88.8,22.6 89.3,23.7 C89.7,24.8 90.4,25.7 91.2,26.3 C92,26.9 93,27.2 94.1,27.2 C95.4,27.2 96.4,26.8 97.3,26.1 C98.1,25.4 98.7,24.4 98.8,23.2 L102.2,23.2 L102.2,23.3 C102.1,24.5 101.8,25.6 101.1,26.6 C100.5,27.6 99.6,28.5 98.4,29.1 C97,29.9 95.6,30.2 93.9,30.2 Z" id="Path"></path>
            <path d="M103.5,29.8 L103.5,27.4 L106.6,26.9 L106.6,3 L103.5,2.5 L103.5,0 L110.4,0 L110.4,11.9 C111.1,10.9 112,10.1 113,9.6 C114,9.1 115.2,8.8 116.4,8.8 C118.6,8.8 120.3,9.5 121.6,10.8 C122.8,12.1 123.4,14.2 123.4,16.9 L123.4,26.9 L126.5,27.4 L126.5,29.8 L116.5,29.8 L116.5,27.4 L119.6,26.9 L119.6,16.8 C119.6,15.1 119.2,13.8 118.5,13 C117.8,12.2 116.7,11.8 115.2,11.8 C114.2,11.8 113.2,12 112.4,12.5 C111.6,13 110.9,13.7 110.3,14.5 L110.3,26.8 L113.4,27.3 L113.4,29.7 L103.5,29.7 L103.5,29.8 Z" id="Path"></path>
        </g>
        <path d="M200.2,38.1 C200.2,37.6 200.3,37.2 200.5,36.8 C200.7,36.4 201,36.1 201.4,35.9 C201.8,35.7 202.2,35.6 202.6,35.6 C203,35.6 203.5,35.7 203.8,35.9 C204.2,36.1 204.5,36.4 204.7,36.8 C204.9,37.2 205,37.6 205,38.1 C205,38.6 204.9,39 204.7,39.4 C204.5,39.8 204.2,40.1 203.8,40.4 C203.4,40.6 203,40.8 202.5,40.8 C202,40.8 201.6,40.7 201.2,40.4 C200.8,40.2 200.5,39.8 200.3,39.4 C200.3,39 200.2,38.6 200.2,38.1 Z M200.6,38.1 C200.6,38.5 200.7,38.9 200.9,39.2 C201.1,39.5 201.3,39.8 201.7,40 C202,40.2 202.4,40.3 202.7,40.3 C203.1,40.3 203.4,40.2 203.7,40 C204,39.8 204.3,39.5 204.4,39.2 C204.6,38.9 204.7,38.5 204.7,38.1 C204.7,37.7 204.6,37.3 204.4,37 C204.2,36.7 204,36.4 203.7,36.2 C203.4,36 203,35.9 202.7,35.9 C202.3,35.9 202,36 201.7,36.2 C201.4,36.4 201.1,36.7 200.9,37 C200.7,37.3 200.6,37.7 200.6,38.1 Z M202.1,38.4 L202.1,39.6 L201.6,39.6 L201.6,36.7 L202.6,36.7 C203,36.7 203.2,36.8 203.4,36.9 C203.6,37.1 203.7,37.3 203.7,37.6 C203.7,37.9 203.6,38.1 203.3,38.2 C203.6,38.3 203.7,38.6 203.7,38.9 L203.7,39.1 C203.7,39.3 203.7,39.4 203.8,39.5 L203.8,39.6 L203.3,39.6 C203.3,39.5 203.3,39.4 203.3,39.2 C203.3,39 203.3,38.9 203.3,38.8 C203.3,38.6 203.1,38.5 202.8,38.5 L202.1,38.5 L202.1,38.4 Z M202.1,37.9 L202.6,37.9 C202.8,37.9 202.9,37.9 203,37.8 C203.1,37.7 203.2,37.6 203.2,37.5 C203.2,37.3 203.2,37.2 203.1,37.1 C203,37 202.9,37 202.6,37 L202.1,37 L202.1,37.9 L202.1,37.9 Z" id="Shape" fill="#000000" fill-rule="nonzero"></path>
        <g id="Group" transform="translate(192.700000, 62.700000)" fill="#737373" fill-rule="nonzero">
            <polygon id="Path" points="2.3 0.3 1.4 0.3 1.4 2.9 1 2.9 1 0.3 0 0.3 0 0 2.3 0"></polygon>
            <polygon id="Path" points="3.2 0 4.2 2.4 5.2 0 5.7 0 5.7 2.9 5.3 2.9 5.3 1.8 5.3 0.6 4.3 3 4 3 3 0.6 3 1.8 3 2.9 2.6 2.9 2.6 0"></polygon>
        </g>
    </g>
</svg>