<?xml version="1.0" encoding="UTF-8"?><svg id="Layer_1" xmlns="http://www.w3.org/2000/svg" viewBox="0 0 451.1 138.51"><defs><style>.cls-1{fill:#fff;}</style></defs><g><path class="cls-1" d="m193.32,96.8c-4.44,2.59-9.4,3.92-15.47,3.92-17.47,0-27.61-12.14-27.61-32.64,0-14.58,5.55-24.28,12.95-29.31,4.22-2.81,10.36-4.66,15.69-4.66,4.22,0,8.81.96,12.21,2.81,2.37,1.26,3.48,2.07,6.22,4.44l-8.07,10.88c-3.33-3.11-6.96-4.96-9.99-4.96-7.4,0-10.73,6.44-10.73,21.24,0,8.29,1.11,13.25,3.18,15.99,1.7,2.22,4.59,3.55,7.4,3.55,3.85,0,7.33-1.63,11.4-5.18l.96-.89,7.55,9.99c-2.37,2.59-3.48,3.4-5.7,4.81Z"/><path class="cls-1" d="m248.46,91.84c-4.81,5.48-11.1,8.81-20.87,8.81-17.17,0-28.42-12.88-28.42-32.79s11.4-33.16,28.42-33.16c9.03,0,16.06,3.11,21.54,9.55,5.11,5.92,7.33,12.88,7.33,23.09-.07,10.88-2.59,18.28-7.99,24.5Zm-13.47-41.6c-1.63-2.07-4.22-3.33-7.18-3.33-3.92,0-7.18,2.44-8.51,6.44-1.11,3.33-1.7,7.77-1.7,14.06,0,7.33.74,12.73,2.07,15.99,1.48,3.48,5.18,5.18,8.44,5.18,7.18,0,10.29-6.44,10.29-21.39-.07-8.51-1.18-14.06-3.4-16.95Z"/><path class="cls-1" d="m303.01,101.02c-2.07-1.48-3.85-3.55-4.96-6.22-4.07,3.92-9.99,6.07-16.73,6.07-8.88,0-16.58-4.22-18.65-10.29-.96-2.81-1.33-6.22-1.33-12.58v-40.56l16.36-3.11v40.71c0,5.7.52,8.66,1.33,10.36.89,1.7,3.33,2.96,5.85,2.96,4.07,0,9.03-2.96,10.29-6.07v-44.49l15.84-3.33v48.33c0,4.22,1.33,8.51,3.85,11.47l-11.84,6.74Z"/><path class="cls-1" d="m367.93,93.47c-4.29,4.59-9.99,7.18-16.95,7.18-4.96,0-9.62-1.26-13.25-3.33.22,1.48.22,3.33.22,5.18v19.76l-15.99,4.22V53.28c0-8.29-.15-10.66-.96-15.99l14.73-2.59c.59,2.22.96,3.92,1.11,5.92,2.81-3.48,9.18-5.92,15.62-5.92,4.44,0,9.03,1.48,12.51,3.85,6.81,4.59,11.77,12.73,11.77,27.31,0,13.62-2.22,20.5-8.81,27.61Zm-10.88-39.97c-1.26-3.48-3.85-5.33-7.92-5.33s-8.07,1.7-11.03,4.81v30.79c2.22,1.85,5.85,3.7,9.18,3.7,8.14,0,11.4-5.55,11.4-20.06,0-6-.52-10.81-1.63-13.92Z"/><path class="cls-1" d="m427.07,102.5c-3.85-1.63-7.33-4.44-8.88-7.7-1.26,1.26-2.59,2.44-3.85,3.33-3.11,2.22-7.55,3.48-12.73,3.48-14.06,0-21.76-7.18-21.76-19.76,0-14.88,10.29-21.76,30.42-21.76,1.26,0,2.37,0,3.7.15v-2.59c0-7.03-1.33-9.4-7.4-9.4-5.33,0-11.47,2.59-18.28,7.18l-7.03-11.84c3.33-2.07,5.85-3.33,10.29-5.18,6.22-2.59,11.47-3.7,17.32-3.7,10.66,0,17.91,3.92,20.43,11.03.89,2.59,1.26,4.59,1.11,11.4l-.37,21.24c-.15,6.96.37,9.92,5.92,14.06l-8.88,10.07Zm-14.14-30.94c-11.47,0-15.47,2.07-15.47,9.62,0,4.96,3.11,8.29,7.33,8.29,3.11,0,6.22-1.63,8.66-4.29l.22-13.62h-.74Z"/></g><path class="cls-1" d="m140.06,75.04c-3.37-4.48-14.94-10.6-14.94-10.6,5.01-.39,10.59-2.17,10.59-2.17,5.04-1.72,5.23-4.24,5.23-4.24.35-2.68-4.54-4.89-4.54-4.89-5.39-2.86-16.23-4.45-16.23-4.45,4.61-2.52,7.42-4.84,7.42-4.84,4.66-4.09,3.39-6.07,3.39-6.07-.66-2.43-5.74-2.97-5.74-2.97-4.66-.63-12.33.69-12.33.69,2.94-3.75,4-7.22,4-7.22.8-2.79-.27-4.11-.27-4.11-1.27-2.17-5.75-1.22-5.75-1.22-6.6,1.55-11.15,4.59-11.15,4.59.83-2.97.69-7.32.69-7.32-.18-1.65-.55-3.83-1.98-4.88-1.86-1.37-4.48-.25-6.2.82-1.73,1.08-3.2,2.58-4.56,4.09-.24.27-1.5,1.44-1.45,1.71-.45-1.6-.99-3.17-1.62-4.71-.94-2.3-3.29-5.1-5.96-5.23h0s0,0,0,0c0,0,0,0,0,0h0c-2.67.14-5.02,2.93-5.96,5.23-.63,1.54-1.17,3.11-1.62,4.71.05-.27-1.2-1.44-1.45-1.71-1.35-1.51-2.83-3.01-4.56-4.09-1.73-1.08-4.34-2.19-6.2-.82-1.43,1.05-1.8,3.23-1.98,4.88,0,0-.14,4.34.69,7.32,0,0-4.55-3.05-11.15-4.59,0,0-4.49-.94-5.75,1.22,0,0-1.08,1.32-.27,4.11,0,0,1.05,3.47,4,7.22,0,0-7.67-1.32-12.33-.69,0,0-5.08.55-5.74,2.97,0,0-1.27,1.99,3.39,6.07,0,0,2.81,2.32,7.42,4.84,0,0-10.83,1.59-16.23,4.45,0,0-4.89,2.2-4.54,4.89,0,0,.19,2.52,5.23,4.24,0,0,5.58,1.77,10.59,2.17,0,0-11.57,6.12-14.94,10.6,0,0-2.71,2.7-2.03,5.17,0,0,.59,3.12,8.82,2.56,0,0,6.4-.39,14.19-2.68-.03,0-.05.02-.05.02,0,0-7.72,8.74-9.95,13.42,0,0-5.02,7.92-2,11.01,0,0,1.39,1.84,6.86.15,0,0,7.76-2.63,15.99-9.3,0,0-3.44,9.55-3.8,17.01,0,0-.75,7.3,3.02,8.8,0,0,3.16,1.57,9.14-4.61,0,0,7.21-7.86,11.33-15.83.51,4.42,1.22,8.89,2.35,13.2.71,2.71,1.58,5.39,2.82,7.91.92,1.87,2.34,4.5,4.71,4.63h0s0,0,0,0c0,0,0,0,0,0h0c2.38-.13,3.79-2.76,4.71-4.64,1.23-2.52,2.11-5.2,2.82-7.91,1.13-4.31,1.85-8.77,2.35-13.2,4.12,7.98,11.33,15.83,11.33,15.83,5.98,6.18,9.14,4.61,9.14,4.61,3.77-1.51,3.02-8.8,3.02-8.8-.36-7.45-3.8-17.01-3.8-17.01,8.23,6.67,15.99,9.3,15.99,9.3,5.46,1.69,6.86-.15,6.86-.15,3.02-3.09-2-11.01-2-11.01-2.23-4.67-9.95-13.42-9.95-13.42,0,0-.02,0-.05-.02,7.79,2.29,14.19,2.68,14.19,2.68,8.23.56,8.82-2.56,8.82-2.56.68-2.47-2.03-5.17-2.03-5.17Zm-13.47-.99s-1.22,4.68-19.15-.6c0,0-10.11-3.16-14.5-5.69,0,0,9.25,15.67,10.14,28.2,0,0,.6,6.13-2.3,7.25,0,0-3.21,1.41-9.7-6.76,0,0-7.8-9.45-12.37-23.49-4.57,14.04-12.37,23.49-12.37,23.49-6.49,8.18-9.7,6.76-9.7,6.76-2.9-1.12-2.3-7.25-2.3-7.25.89-12.53,10.14-28.2,10.14-28.2-4.39,2.53-14.5,5.69-14.5,5.69-17.93,5.28-19.15.6-19.15.6-1.43-3.83,8.92-9.9,8.92-9.9,7.87-5.16,19.92-8.91,19.92-8.91-14.04-4.02-19.22-8.84-19.22-8.84-4.34-3.66-2.92-5.38-2.92-5.38,2.19-3.7,14.49-1.37,14.49-1.37,9.08,1.7,13.99,4.11,13.99,4.11-3.79-7.01-4.66-13.05-4.66-13.05-1.22-7.66,2.11-8.32,2.11-8.32,2.45-.85,6.01,2.6,6.01,2.6,6.9,7.09,9.24,14.17,9.24,14.17h0s0,0,0,0c0,0,2.35-7.08,9.24-14.17,0,0,3.56-3.45,6.01-2.6,0,0,3.33.66,2.11,8.32,0,0-.86,6.04-4.66,13.05,0,0,4.92-2.4,13.99-4.11,0,0,12.29-2.33,14.49,1.37,0,0,1.42,1.72-2.92,5.38,0,0-5.18,4.81-19.22,8.84,0,0,12.05,3.75,19.92,8.91,0,0,10.34,6.07,8.92,9.9Z"/></svg>